<svg xmlns="http://www.w3.org/2000/svg" width="981.268" height="300" viewBox="0 0 981.268 300"><defs><clipPath id="a"><path fill="#f72f08" d="M0 0h981.267v300H0z"/></clipPath></defs><g fill="#f72f08" clip-path="url(#a)"><path d="M325.238 167.514v127.267h57.65V167.514c0-26.106 16.317-42.422 42.423-42.422h41.334v-53.3h-44.6c-59.827 0-96.81 36.983-96.81 95.722M54.388 184.918V71.792H0v110.95c0 8.7 0 44.6 29.37 75.055 29.354 29.355 55.475 36.984 100.073 36.984v-53.3c-29.369 0-48.949-6.526-62-19.58-13.053-14.14-13.053-34.807-13.053-36.983M229.516 240.9c-20.252-1.834-35.024-8.158-46.773-19-13.054-14.14-13.054-34.808-13.054-36.983V71.791H115.3v110.951c0 8.7 0 44.6 29.37 75.055 26.624 26.624 53.973 36.984 84.844 36.984h57.651V71.791h-57.649ZM552.578 0h-57.651v207.761c0 53.3 34.808 87.02 89.2 87.02h53.3v-53.3h-50.041a35.05 35.05 0 0 1-34.808-34.808v-81.581h84.844v-53.3h-84.844ZM769.041 71.792H668.968v222.989h57.651V125.092h38.071c25.018 0 42.422 17.4 42.422 42.422v127.267h57.651V167.514c0-58.738-36.984-95.722-95.722-95.722M981.267 257.144A42.857 42.857 0 1 0 938.411 300a42.856 42.856 0 0 0 42.856-42.856"/></g></svg>